<?xml version="1.0" encoding="UTF-8"?>
<svg id="Layer_1" data-name="Layer 1" xmlns="http://www.w3.org/2000/svg" xmlns:xlink="http://www.w3.org/1999/xlink" viewBox="0 0 2500 2500">
  <defs>
    <linearGradient id="linear-gradient" x1="2361.6" y1="1167.16" x2="1933.25" y2="1476.32" gradientUnits="userSpaceOnUse">
      <stop offset="0" stop-color="#ced893"/>
      <stop offset="1" stop-color="#abbc62"/>
    </linearGradient>
    <linearGradient id="linear-gradient-2" x1="505.08" y1="355.31" x2="1223.96" y2="1435.51" xlink:href="#linear-gradient"/>
    <linearGradient id="linear-gradient-3" x1="118.66" y1="1027.46" x2="893.42" y2="1761.25" xlink:href="#linear-gradient"/>
    <linearGradient id="linear-gradient-4" x1="1299.81" y1="1558.77" x2="1499.5" y2="1982.45" gradientUnits="userSpaceOnUse">
      <stop offset="0" stop-color="#f9b862"/>
      <stop offset="1" stop-color="#f79b37"/>
    </linearGradient>
    <linearGradient id="linear-gradient-5" x1="980.4" y1="1649.92" x2="1876.01" y2="2429.77" gradientUnits="userSpaceOnUse">
      <stop offset="0" stop-color="#aed8ed"/>
      <stop offset="1" stop-color="#87c1d8"/>
    </linearGradient>
  </defs>
  <path d="M1883.97,1381.93l96.97-62.43c30.87-19.88,43.15-58.98,29.05-92.88-27.06-65.05-47.65-170.61,69.41-222.79,0,0,142.32-72.22,216.66,91.34,0,0,99.14-8.6,140.94,74.85,8.77,17.5,13.08,36.84,14.12,56.38,2.24,41.92-2.44,124.49-69.35,152.19-8.92,36.95,36.66,119.9-41.6,176.42-15.81,11.42-33.99,19.09-53,23.44-39.64,9.05-112.41,14.12-163.88-49.82-19.31-23.99-57.99-34.82-86.63-23.5l-84.72,33.47-67.97-156.66Z" style="fill: url(#linear-gradient);"/>
  <path d="M2058.7,1480.02c-16.61-56.4-46.37-108.78-87.25-154.41l-87.49,56.33,67.97,156.66,84.72-33.47c8.54-3.37,17.97-4.74,27.51-4.41-1.65-6.95-3.46-13.85-5.47-20.69Z" style="fill: #8c993f;"/>
  <path d="M830.78,296.97c-60.85-65.23-177.02-149.39-322.28-60.42,0,0-143.17,91.59-53.88,344.68,21.51,60.98,21.77,131.16-3.46,194.51-1.47,3.68-3.01,7.37-4.65,11.05,0,0-112.84,216.23,79.61,343.37,0,0,93.78,70.33,115.23,231.02l847.44,275.92s50.87-489.43-181.51-748.62c0,0-5.51-7.22-14.05-19.64-41.39-60.17-70.99-129.73-89.22-204.11-21.99-89.75-85.08-258.77-252.83-299.25-45.52-10.98-87.57-33.3-120.41-68.5Z" style="fill: url(#linear-gradient-2);"/>
  <path d="M847.09,1197.98c-1.96-1.58-5.33-4.32-9.67-8.03-35.53-30.34-67.13-70.14-93.91-118.29-43.95-79.01-141.09-211.56-297.96-211.56-7.81,0-15.75,.35-23.61,1.03-.27,.02-.54,.01-.81,.04-16.31,74.5-15.69,189.26,104.99,268.99,0,0,113.35,515.48,134.8,676.17l462.6-245.33c-52.2-114.41-166.91-290.91-276.43-363.02Z" style="fill: #8c993f;"/>
  <path d="M326.89,912.81c-58.43-36.04-160.62-72.82-243.39,35.32,0,0-80.68,109.68,41.53,287.46,29.44,42.83,45.89,98.47,42.61,155.26-.19,3.3-.44,6.63-.75,9.97,0,0-30.21,200.76,136.24,251.94,0,0,83.05,31.58,135.56,153.57h667.13s-77.21-401.57-302.68-547.22c0,0-5.59-4.31-14.55-11.96-43.4-37.06-80.59-84.61-110.8-138.93-36.45-65.54-120.53-183.38-249.3-172.16-34.95,3.05-70.05-3.8-101.58-23.25Z" style="fill: url(#linear-gradient-3);"/>
  <path d="M623.33,1806.33h482.48s-31.81-165.38-114.18-322.37l-100.58,37.72c-263.16,80.62-267.7,272.85-267.72,284.66Z" style="fill: #8c993f;"/>
  <path d="M1477.77,1301.66l-486.14,182.3,47.77,104.36,113.65-54.63,335.74,103.41s16.03-154.26-11.03-335.44Z" style="fill: #8c993f;"/>
  <path d="M1140.8,1217.98c-10.32-67.91-36.86-151.67-66.06-231.68,1.81-95.43,23.56-186.93,42.07-248.15,6.7-22.18-22.26-37.67-36.6-19.47-31.84,40.4-50.75,87.57-61.52,123.16-.58-1.43-1.18-2.93-1.75-4.35-6.62-16.38-15.15-31.93-25.02-46.59-27.94-41.51-121.63-194.68-260.75-313.33-15.43-13.16-36.94,6.74-25.05,23.16,32.52,44.91,73.56,103.37,117.64,170.31-36.42-9.38-95.42-19.83-154.92-10.23-22.88,3.69-23.42,36.53-.78,41.45,59.43,12.92,144.22,36.54,224.87,77.35,84.87,137.92,170.7,296.56,222.82,444.65,5.21,14.81,27.41,9.23,25.05-6.3Z" style="fill: #8c993f;"/>
  <path d="M1869.83,1332.64c90.87,72.85,193.88,218.92,79.49,473.69H698.54s-.81-147.73,216.68-213.39l771.46-289.3c61.91-23.22,131.56-12.37,183.15,28.99Z" style="fill: url(#linear-gradient-4);"/>
  <path d="M2327.24,1760.38H172.76c-68.64,0-124.29,55.65-124.29,124.29s55.65,124.29,124.29,124.29h87.61l254.49,207.95c67.34,55.03,151.63,85.09,238.6,85.09h993.11c86.96,0,171.25-30.06,238.59-85.09l254.49-207.95h87.61c68.64,0,124.29-55.65,124.29-124.29s-55.65-124.29-124.29-124.29Z" style="fill: url(#linear-gradient-5);"/>
  <path d="M672.45,2008.96H260.36l113.3,92.58,301.86-62.89c17.67-3.68,14.99-29.7-3.06-29.7Z" style="fill: #4889aa;"/>
  <path d="M2239.64,2008.96h-417.81c-18.05,0-20.73,26.01-3.06,29.7l306.41,63.83,114.46-93.53Z" style="fill: #4889aa;"/>
  <path d="M1418.99,1553.46c3.55,17.91,19.27,30.32,36.86,30.32,2.42,0,4.87-.24,7.34-.72,20.38-4.03,33.63-23.82,29.6-44.2-11.3-57.07-35.03-106.48-55.86-141.55l-71.74,26.9c18.66,29.26,43.15,75.38,53.81,129.25Z" style="fill: #e58220;"/>
  <path d="M1584.48,1341.97c1.16,2.05,2.49,4.03,4.07,5.89,.59,.7,59.41,70.53,77.65,162.68,3.55,17.91,19.27,30.32,36.86,30.32,2.42,0,4.87-.24,7.34-.72,20.38-4.03,33.63-23.82,29.6-44.2-16.73-84.55-60.76-152.31-82.2-181.47l-73.32,27.5Z" style="fill: #e58220;"/>
  <path d="M1155.06,1574.44c2.38,19.03,18.58,32.95,37.28,32.95,1.55,0,3.12-.1,4.71-.29,20.61-2.58,35.23-21.38,32.66-41.99-3.95-31.63-14.28-59.08-25.16-80.66l-70.91,26.59c8.83,15.87,18.23,37.83,21.42,63.4Z" style="fill: #e58220;"/>
  <path d="M1073.82,1685.16H352.77c19.34,16.64,41.76,40.88,62.4,75.22h680.03c-5.11-20.13-12.16-45.87-21.39-75.22Z" style="fill: #8c993f;"/>
  <path d="M708.21,1760.38H1968.07c9.65-26.35,16.76-51.36,21.87-75.22H754.97c-25.08,26.89-39.04,53.67-46.76,75.22Z" style="fill: #e58220;"/>
  <path d="M710.54,1501.44c-16.27-39.06-42.02-83.67-70.44-127.85-17.29-26.87-28.9-57.12-33.18-88.79-7.34-54.36-7.33-105.76-5.45-143.63,.9-18.13-24.05-24.42-31.51-7.87-16.56,36.74-22.01,76.18-23.46,105.27h-.03c-8.6-12.37-18.78-23.57-29.95-33.66-29.1-26.27-129.32-124.98-257.53-188.85-14.22-7.08-26.83,12.09-14.68,22.33,33.22,27.99,75.5,64.67,121.7,107.23-29.46-.24-76.29,2.99-119.7,21.55-16.69,7.14-10.89,32.2,7.25,31.66,47.62-1.43,116.55,.48,185.58,16.24,90.63,88.78,185.9,193.14,253.55,295.85,6.82,10.36,22.64,1.97,17.86-9.48Z" style="fill: #91a346;"/>
</svg>