<?xml version="1.0" encoding="UTF-8"?>
<svg id="Layer_1" data-name="Layer 1" xmlns="http://www.w3.org/2000/svg" viewBox="0 0 2500 2500">
  <path d="M491.66,798.08s-3.02,5.79-7.21,15.99c134.17,19.48,218.88,136.45,259.07,208.7,26.78,48.15,58.38,87.95,93.91,118.29,4.34,3.71,7.71,6.45,9.67,8.03,94.13,61.96,164.29,160.37,215.29,259.43l447.51-167.81c-25.59-120.99-72.64-246.31-157.49-340.94,0,0-5.51-7.22-14.05-19.64-41.39-60.17-70.99-129.73-89.21-204.11-22-89.74-85.08-258.76-252.82-299.24-45.52-10.98-87.57-33.3-120.41-68.5-60.85-65.23-177.01-149.39-322.27-60.42,0,0-143.16,91.59-53.88,344.67,21.51,60.97,21.77,131.16-3.46,194.5-1.47,3.68-3.01,7.37-4.65,11.05Zm240.12-117.41c2.52-.69,31.67-8.35,71.33-6.61-40.37-54.69-68.43-84.87-69.2-85.69-17.09-18.12-16.28-46.68,1.83-63.78,18.1-17.1,46.64-16.33,63.75,1.77,6.64,7.01,119.78,128.19,224.4,333.34,11.18-24.46,25.84-47.37,44.03-68.6,.37-.43,.72-.84,1.04-1.21,10.42-16.05,30.41-24.25,49.8-18.93,24.03,6.6,38.17,31.43,31.58,55.46-2.92,10.61-8.49,17.11-13.88,23.41-12.83,14.98-51.91,60.57-48.61,147.21,.04,1.13,0,2.23-.04,3.34,19.01,47.43,36.78,97.8,52.32,151.1,6.98,23.93-6.77,48.98-30.7,55.96-4.22,1.23-8.47,1.81-12.65,1.81-19.55,0-37.56-12.8-43.3-32.51-44.09-151.25-107.78-279.42-166.72-377.23-54.42-51.95-130.4-32-131.18-31.78-24.06,6.59-48.86-7.59-55.44-31.64-6.57-24.04,7.6-48.86,31.64-55.43Z"/>
  <path d="M166.92,1351.93s-23.13,153.7,82.59,226.41c31.02,21.34,57.89,48.12,77.12,80.48h322.58c30.48-63.36,96.88-141.63,241.84-186.04l48.13-18.05,52.45-19.67c-45.98-87.64-107.72-172.66-188.49-224.84,0,0-5.59-4.31-14.55-11.96-43.4-37.06-80.59-84.61-110.8-138.93-33.05-59.42-105.27-161.75-214.42-172-5.84-.55-11.76-.9-17.81-.9-5.6,0-11.29,.24-17.07,.75-5.27,.46-10.55,.69-15.81,.69-29.65,0-58.99-7.43-85.77-23.95-29.36-18.11-69.77-36.41-113.21-36.41-43.01,0-88.99,17.93-130.17,71.73,0,0-80.67,109.68,41.53,287.46,29.44,42.83,45.89,98.46,42.61,155.26-.19,3.3-.44,6.63-.75,9.97Zm119.72-174.85c2.11-1.35,28.62-17.99,67.48-26.91-31.59-27.56-53-42.91-53.64-43.37-20.34-14.38-25.19-42.53-10.83-62.88,14.36-20.35,42.48-25.22,62.84-10.88,5.85,4.12,99.13,70.67,190.85,181.75,12.62-36.76,29.08-61.55,30.47-63.61,1.11-1.64,2.34-3.15,3.61-4.59,14.8-16.74,40.06-20.35,59.06-7.48,20.6,13.94,26.02,41.9,12.17,62.52-.32,.49-5.48,8.54-11.4,21.15-11.31,24.1-25.27,65.16-13.93,104.06,17.55,28.92,33.87,59.55,48.01,91.83,10,22.83-.4,49.45-23.23,59.45-5.89,2.58-12.04,3.8-18.08,3.8-17.38,0-33.94-10.09-41.36-27.03-35.12-80.17-86.06-150.25-135.38-206.17-1.67-.65-3.33-1.38-4.95-2.25-54.4-29.25-112.34,6.18-112.91,6.54-7.55,4.84-16,7.16-24.34,7.16-14.85,0-29.4-7.33-38.02-20.75-13.46-20.97-7.38-48.89,13.59-62.36Z"/>
  <path d="M2327.21,1749.08H172.79c-68.64,0-124.29,55.65-124.29,124.29,0,53.92,34.39,99.68,82.39,116.89h417.23c24.92,0,45.13,20.21,45.13,45.13s-20.21,45.13-45.13,45.13h-186.32l153.07,125.08c67.34,55.03,151.63,85.08,238.59,85.08h993.09c86.96,0,171.25-30.06,238.59-85.08l153.07-125.08h-186.33c-24.92,0-45.13-20.21-45.13-45.13s20.21-45.13,45.13-45.13h417.24c47.99-17.21,82.39-62.98,82.39-116.89,0-68.64-55.64-124.29-124.29-124.29Z"/>
  <path d="M2451.09,1177.5c-1.04-19.54-5.35-38.88-14.12-56.38-41.8-83.45-140.94-74.84-140.94-74.84-74.34-163.56-216.66-91.34-216.66-91.34-117.05,52.18-96.46,157.73-69.4,222.78,14.1,33.9,1.83,73-29.05,92.88l-9.48,6.11-32.07,20.65-32.08,20.65c-12.33-12.84-25.01-24.27-37.48-34.26-33.69-27.01-75.07-41.01-116.97-41-22.27,0-44.69,3.96-66.17,12.01l-163.34,61.25-12.33,4.62c5.21,7.95,10.83,17.03,16.61,27.14,20.02,35.05,41.64,82.29,52.32,136.24,4.84,24.45-11.05,48.2-35.51,53.03-1.94,.39-3.87,.59-5.8,.72-1.01,.07-2.02,.15-3.02,.15-21.1,0-39.97-14.88-44.22-36.37-13.71-69.26-50.71-125.48-67.48-148.25l-159.91,59.97c14.41,23.81,30.82,59.04,36.21,102.13,2.61,20.96-9.62,40.31-28.46,47.62-3.39,1.31-6.96,2.29-10.73,2.76-1.9,.24-3.79,.35-5.66,.35-15.56,0-29.55-8.16-37.69-20.72-3.59-5.54-6.16-11.84-7.03-18.82-4.87-38.98-24.67-69.09-33.43-80.77l-82.49,30.94-34.98,13.12-5.89,2.21-29.59,11.1-109.02,40.88c-95.71,28.89-149.12,73.68-178.95,114.78H1984.54c18.81-71.77,18.85-133.04,7.42-184.95l35.22-13.92,9.47-3.74c8.54-3.37,17.97-4.74,27.51-4.41,22.47,.76,45.56,11.08,59.12,27.92,51.46,63.93,124.23,58.87,163.87,49.82,19.01-4.34,37.19-12.02,53-23.44,78.25-56.52,32.67-139.47,41.6-176.42,66.9-27.7,71.58-110.26,69.35-152.19Z"/>
</svg>