<svg xmlns="http://www.w3.org/2000/svg" viewBox="0 0 1003.34 943.22"><defs><style>.cls-1{fill:#f6c03b;}.cls-2{fill:#e2aa2d;}</style></defs><g id="Layer_2" data-name="Layer 2"><g id="Layer_2-2" data-name="Layer 2"><path class="cls-1" d="M3,439.77C-20.48,577.09,103.76,712.92,68.5,841.88c-6.33,23.21-37.18,45.85-39.64,67-8,68.27,103.28,9.86,150,13.33,52.56,4,96.5,20.3,149.24,20.68,57.57.49,115.22,1.29,172.47-4.77,164.49-17.3,315.86-102.88,404.32-245,52.6-84.54,87.92-196.55,95.77-296,7.2-90.89,1.51-125.23-37.37-199.51-21-40.12,7.15-97.57-14.24-126.9C928.43,42.45,869.91,62.36,837.11,50,491.29-81.48,71.32,45.79,3,439.77Z"/><path class="cls-2" d="M960.76,255.57C911.26,418.47,849.88,570,699,663.49,563.57,747.22,407.9,758.83,263.07,815.38c-107.12,41.87-33.71,76.51,45,86.11,135.3,16.62,284.44-16.11,397.52-92.76,92.4-62.67,162.08-160,206.18-261.63C954.6,448.29,931.39,352.33,960.76,255.57Z"/><path class="cls-2" d="M747,184.5c-9,5.86-17.38,6.58-19.7,20.54,24.78,2.85,36.44-3.69,31.18-22.89Z"/><path class="cls-2" d="M576.89,56.3c-9.06,5.87-17.39,6.6-19.66,20.54C582,79.66,593.64,73.2,588.4,54Z"/><path class="cls-2" d="M495.06,46.66c-9.13,5.86-17.44,6.58-19.73,20.54,24.77,2.85,36.44-3.64,31.17-22.89Z"/><path class="cls-2" d="M516.92,105.49c-9,5.92-17.44,6.65-19.73,20.54,24.77,2.88,36.42-3.62,31.18-22.84Z"/><path class="cls-2" d="M423.65,91.85c-9,5.92-17.38,6.63-19.71,20.57,24.79,2.82,36.42-3.68,31.18-22.93Z"/><path class="cls-2" d="M276.37,116.72c-9.08,5.87-17.38,6.59-19.71,20.54,24.79,2.87,36.42-3.64,31.18-22.88Z"/><path class="cls-2" d="M200.61,156.12c-9,5.84-17.4,6.55-19.74,20.55,24.79,2.82,36.45-3.7,31.2-22.93Z"/><path class="cls-2" d="M243.36,186.12c-9.12,5.83-17.44,6.59-19.73,20.53,24.76,2.83,36.42-3.67,31.18-22.86Z"/><path class="cls-2" d="M166.73,276.38c-9.07,5.83-17.4,6.55-19.73,20.54,24.81,2.83,36.44-3.67,31.19-22.87Z"/><path class="cls-2" d="M55.16,473.64c-9,5.87-17.37,6.58-19.75,20.54C60.27,497,71.85,490.5,66.65,471.3Z"/><path class="cls-2" d="M171.4,226.81c-9.08,5.87-17.37,6.63-19.78,20.54,24.83,2.82,36.42-3.69,31.24-22.89Z"/><path class="cls-2" d="M116.69,267.21c-9,5.94-17.38,6.6-19.68,20.59,24.72,2.82,36.38-3.67,31.12-22.92Z"/><path class="cls-2" d="M784.51,374.62c-9.07,5.89-17.37,6.6-19.7,20.54,24.78,2.87,36.41-3.62,31.19-22.87Z"/><path class="cls-2" d="M758.71,435.86c-9.06,5.92-17.36,6.65-19.76,20.59,24.84,2.82,36.4-3.67,31.25-22.89Z"/><path class="cls-2" d="M693.29,613.57c-12.48,8.18-24,9.14-27.24,28.43,34.25,3.91,50.37-5.07,43.06-31.61Z"/><path class="cls-2" d="M862.28,402c-9,5.91-17.39,6.63-19.72,20.57,24.8,2.82,36.46-3.68,31.19-22.93Z"/><path class="cls-2" d="M818.35,297c-9.12,5.81-17.44,6.54-19.74,20.52,24.77,2.82,36.45-3.67,31.19-22.88Z"/><path class="cls-2" d="M883.76,262.53c-9,5.88-17.38,6.6-19.71,20.54,24.79,2.82,36.42-3.62,31.18-22.88Z"/><path class="cls-2" d="M877.53,328.53c-9.11,5.88-17.39,6.6-19.71,20.54,24.79,2.82,36.42-3.67,31.18-22.87Z"/><path class="cls-2" d="M734.24,565.81c-9.1,5.94-17.42,6.6-19.73,20.59,24.78,2.87,36.44-3.67,31.2-22.92Z"/><path class="cls-2" d="M672.75,589c-9,5.88-17.39,6.59-19.7,20.54,24.79,2.87,36.42-3.68,31.2-22.87Z"/><path class="cls-2" d="M591.17,560.24c-9,5.87-17.37,6.58-19.68,20.57,24.76,2.83,36.42-3.72,31.18-22.92Z"/><path class="cls-2" d="M654.53,501.53c-9,5.89-17.37,6.65-19.71,20.54,24.79,2.87,36.42-3.67,31.19-22.87Z"/><path class="cls-2" d="M551.64,490.88c-9,5.93-17.35,6.54-19.69,20.54,24.75,2.87,36.41-3.62,31.19-22.88Z"/><path class="cls-2" d="M495.08,603.16c-9,5.88-17.4,6.55-19.7,20.54,24.76,2.82,36.43-3.72,31.12-22.92Z"/><path class="cls-2" d="M425.16,674.42c-9,5.88-17.35,6.65-19.71,20.54,24.81,2.88,36.37-3.67,31.22-22.87Z"/><path class="cls-2" d="M326.84,699.45c-9.06,5.89-17.42,6.65-19.72,20.54,24.76,2.87,36.43-3.62,31.15-22.87Z"/><path class="cls-2" d="M280.59,764.17c-9.1,5.88-17.38,6.6-19.72,20.53,24.79,2.83,36.45-3.66,31.23-22.86Z"/><path class="cls-2" d="M364.4,731.85c-9,5.92-17.42,6.63-19.73,20.52,24.84,2.87,36.46-3.63,31.22-22.88Z"/><path class="cls-2" d="M483.87,701.45c-9.08,5.89-17.37,6.65-19.8,20.55,24.9,2.87,36.46-3.68,31.29-22.88Z"/><path class="cls-2" d="M242.81,738.1c-9,5.82-17.36,6.54-19.68,20.48,24.79,2.88,36.42-3.62,31.18-22.87Z"/><path class="cls-2" d="M71.07,518.73c-9,5.92-17.42,6.59-19.7,20.54,24.76,2.87,36.38-3.64,31.14-22.89Z"/><path class="cls-2" d="M112.12,424.21c-9,5.87-17.34,6.64-19.74,20.54,24.86,2.86,36.42-3.64,31.23-22.84Z"/><path class="cls-2" d="M72.51,324.67c-9.06,5.88-17.41,6.6-19.75,20.54C77.57,348,89.22,341.53,84,322.34Z"/><path class="cls-2" d="M813.51,237.8c-19.21,1.09-34.53,11.55-42.23,30,22.13,8.08,41.4-5.06,44.15-29.36Z"/><path class="cls-2" d="M855.85,365.69c-19.25,1.1-34.52,11.56-42.21,30,22.11,8,41.37-5.09,44.13-29.36Z"/><path class="cls-2" d="M850.43,459.7c-19.27,1.14-34.48,11.6-42.21,30,22.07,8.07,41.32-5.05,44.14-29.31Z"/><path class="cls-2" d="M791.58,481.62c-19.32,1.1-34.61,11.56-42.28,30,22.09,8,41.38-5.12,44.18-29.36Z"/><path class="cls-2" d="M643.16,642.48c-19.29,1.13-34.54,11.59-42.21,30,22.07,8,41.29-5.12,44.14-29.39Z"/><path class="cls-2" d="M578.88,647.83c-22.8,1.34-40.9,13.71-50,35.54,26.1,9.54,48.91-6,52.25-34.78Z"/><path class="cls-2" d="M692.33,521.25c-14.86,5.69-29.8,21.69-31.36,41.9,23.46,1.52,41.63-13.42,40.17-36.64Z"/><path class="cls-2" d="M344.14,184.78c-15.91.44-35.29,10.6-43.55,29.05,21.65,9.26,43.79,1.18,50.13-21.22Z"/><path class="cls-2" d="M356.43,119.35c-77.86,24.45,27.09,53.4,18.28,8.54Z"/><path class="cls-2" d="M387.94,60.08c-77.79,24.49,27.08,53.39,18.36,8.6Z"/><path class="cls-2" d="M251.61,236.07c-63.85,20,22.15,43.76,14.9,7Z"/><path class="cls-2" d="M115.41,326.58c-63.79,20.06,22.21,43.76,15,7Z"/><path class="cls-2" d="M72.72,403.43c-63.78,20.07,22.24,43.74,15,7Z"/></g></g></svg>