<svg xmlns="http://www.w3.org/2000/svg" viewBox="0 0 885.95 833.48"><defs><style>.cls-1{fill:#f6c03b;}.cls-2{fill:#fff;}</style></defs><g id="Layer_2" data-name="Layer 2"><g id="Layer_2-2" data-name="Layer 2"><path class="cls-1" d="M786.7,643.59c-154.29,193-433.28,248-623.11,122.72S-55.06,383,99.24,190s433.3-248,623.11-122.77S941,450.5,786.7,643.59Z"/><path class="cls-2" d="M753.06,623.43c-139,174-391.62,222.63-564.29,108.77S-11.11,384.94,127.9,211,519.59-11.6,692.2,102.25,892,449.51,753.06,623.43Z"/><path class="cls-1" d="M592.8,133.19c.11-69.14-128.91-107.62-170.94-43-40.36,61.9,18.89,228.44,27.9,290.07C487.1,319.62,585,212.08,592.47,138.65A52,52,0,0,1,592.8,133.19Z"/><path class="cls-1" d="M351.69,138c-52.08-43.49-182.66,18.92-167,87.63,15,65.88,187.38,130.66,241,163.28-16.44-63.11-20.52-196.2-70.1-247.35A45.22,45.22,0,0,1,351.69,138Z"/><path class="cls-1" d="M165.59,302.71C91.76,310.32,36,437.1,100.41,469.62c61.49,31.33,246-43.69,312.85-59.19-60.63-28.51-164.33-109.31-242-108C169.47,302.47,167.45,302.78,165.59,302.71Z"/><path class="cls-1" d="M143.44,530.83c-52.36,54.31-.38,171.14,74.8,148.34,72-21.57,160.57-192.41,201.51-246.91-69.27,22.81-211.84,41.66-272,94.51A55.33,55.33,0,0,1,143.44,530.83Z"/><path class="cls-1" d="M298.33,688.69c-.22,69.2,128.9,107.67,170.84,42.95,40.41-61.87-18.82-228.4-27.83-290C404,502.32,306.06,609.79,298.59,683.29,298.46,685.06,298.64,686.89,298.33,688.69Z"/><path class="cls-1" d="M539.34,683.9c52,43.51,182.81-19,167-87.7-15-65.87-187.34-130.63-241-163.15,16.46,63,20.49,196.16,70.17,247.22A41.83,41.83,0,0,1,539.34,683.9Z"/><path class="cls-1" d="M725.48,519.2c73.83-7.68,129.47-134.39,65.23-167C729.16,321,544.56,396,477.8,411.55c60.55,28.44,164.33,109.27,241.93,108A54.49,54.49,0,0,1,725.48,519.2Z"/><path class="cls-1" d="M747.57,291.16c52.36-54.38.44-171.19-74.71-148.53-72.07,21.7-160.69,192.47-201.51,247,69.29-22.73,211.86-41.61,272-94.57C744.71,293.87,746.05,292.34,747.57,291.16Z"/></g></g></svg>