<?xml version="1.0" encoding="utf-8"?>
<!-- Generator: Adobe Illustrator 26.0.3, SVG Export Plug-In . SVG Version: 6.00 Build 0)  -->
<svg version="1.1" id="flat" xmlns="http://www.w3.org/2000/svg" xmlns:xlink="http://www.w3.org/1999/xlink" x="0px" y="0px"
	 viewBox="0 0 512 512" enable-background="new 0 0 512 512" xml:space="preserve">
<g>
	<path fill="#7A4922" d="M448.008,328.001c-0.52,0-1.047-0.051-1.577-0.157c-4.333-0.867-7.142-5.081-6.276-9.414l3.039-15.193
		c1.012-5.058,1.576-10.238,1.678-15.396c0.087-4.417,3.692-7.929,8.156-7.841c4.417,0.087,7.928,3.739,7.841,8.156
		c-0.121,6.104-0.789,12.233-1.985,18.218l-3.039,15.193C455.084,325.372,451.744,328.001,448.008,328.001z"/>
</g>
<g>
	<path fill="#5B3719" d="M416.008,328.001c-0.52,0-1.047-0.051-1.577-0.157c-4.333-0.867-7.142-5.081-6.276-9.414l3.039-15.193
		c0.867-4.332,5.079-7.142,9.414-6.276c4.333,0.867,7.142,5.081,6.276,9.414l-3.039,15.193
		C423.084,325.372,419.744,328.001,416.008,328.001z"/>
</g>
<g>
	<path fill="#7A4922" d="M420.684,288c-4.184,0-7.703-3.252-7.976-7.486c-0.482-7.479-1.928-14.875-4.297-21.984
		c-1.397-4.191,0.868-8.722,5.06-10.119c4.192-1.398,8.722,0.868,10.119,5.06c2.805,8.413,4.516,17.166,5.085,26.016
		c0.284,4.409-3.06,8.213-7.469,8.498C421.031,287.995,420.856,288,420.684,288z"/>
</g>
<path fill="#E42A3C" d="M433.389,403.927l-132.415,26.626c-29.909,6.014-59.905-9.919-71.668-38.067l-11.227-26.865L484.742,312
	l0.03,29.117C484.804,371.624,463.298,397.913,433.389,403.927z"/>
<g>
	<path fill="#C92535" d="M387.992,368.696c-3.732,0-7.071-2.625-7.835-6.424c-0.871-4.332,1.935-8.549,6.266-9.42l64.87-13.044
		c4.335-0.87,8.549,1.935,9.42,6.266c0.871,4.332-1.935,8.549-6.266,9.42l-64.87,13.044
		C389.045,368.645,388.514,368.696,387.992,368.696z"/>
</g>
<g>
	<path fill="#C92535" d="M343.644,377.613c-3.732,0-7.071-2.625-7.835-6.424c-0.871-4.332,1.935-8.549,6.266-9.42l14.041-2.823
		c4.336-0.87,8.55,1.935,9.42,6.266c0.871,4.332-1.935,8.549-6.266,9.42l-14.041,2.823
		C344.697,377.562,344.167,377.613,343.644,377.613z"/>
</g>
<rect x="181.548" y="368.461" transform="matrix(0.9804 -0.1971 0.1971 0.9804 -71.757 48.0652)" fill="#D6D5D0" width="48" height="32"/>
<path fill="#7A4922" d="M186.75,412.721l-133.331,26.81c-12.995,2.613-25.647-5.803-28.26-18.798l0,0
	c-2.613-12.995,5.803-25.647,18.798-28.26l133.331-26.81L186.75,412.721z"/>
<g>
	<path fill="#57A865" d="M241.668,229.423c-3.389-2.836-8.435-2.388-11.269,1.001c-2.835,3.388-2.387,8.434,1.001,11.269h0
		l-7.925-6.631c-3.391-2.835-8.435-2.386-11.27,1.002c-2.835,3.388-2.386,8.434,1.002,11.269l7.926,6.632c0,0,0,0-0.001,0
		c-3.389-2.835-8.435-2.387-11.269,1.002c-2.835,3.389-2.386,8.434,1.002,11.269c3.856,3.227,8.596,4.898,13.407,4.898
		c2.827,0,5.68-0.578,8.39-1.757c3.816-1.66,7.163-4.164,9.844-7.244c0.127-0.132,0.258-0.26,0.377-0.402
		c0.151-0.18,0.288-0.368,0.42-0.557c2.511-3.157,4.353-6.851,5.302-10.852C250.45,242.555,247.792,234.546,241.668,229.423z"/>
	<path fill="#57A865" d="M436.953,77.53c-3.469-2.736-8.5-2.141-11.235,1.329h0l6.398-8.115c2.736-3.47,2.14-8.5-1.329-11.235
		c-3.471-2.738-8.5-2.14-11.235,1.329l-6.399,8.117c0,0,0-0.001,0.001-0.001c2.735-3.469,2.141-8.5-1.329-11.235
		c-3.469-2.737-8.5-2.141-11.235,1.329c-4.943,6.27-5.904,14.654-2.506,21.879c1.748,3.717,4.304,6.953,7.405,9.527
		c0.171,0.161,0.347,0.319,0.535,0.467c0.074,0.058,0.155,0.097,0.23,0.152c3.304,2.553,7.174,4.374,11.341,5.236
		c1.436,0.297,2.875,0.442,4.299,0.442c6.331,0,12.355-2.866,16.391-7.984C441.018,85.296,440.423,80.266,436.953,77.53z"/>
</g>
<rect x="312" y="232" fill="#D6D5D0" width="24" height="24"/>
<rect x="320" y="80.007" fill="#D6D5D0" width="24" height="24"/>
<rect x="328" y="168" transform="matrix(0.8217 0.5699 -0.5699 0.8217 163.2036 -161.6768)" fill="#E6E5E0" width="24" height="24"/>
<path fill="#7A4922" d="M420.686,182.627L420.686,182.627c-6.248-6.248-6.248-16.379,0-22.627L432,148.686
	c6.248-6.248,16.379-6.248,22.627,0l0,0c6.248,6.248,6.248,16.379,0,22.627l-11.314,11.314
	C437.065,188.876,426.935,188.876,420.686,182.627z"/>
<circle fill="#B5CF7F" cx="388" cy="220" r="12"/>
<circle fill="#B5CF7F" cx="260" cy="188" r="12"/>
<g>
	<path fill="#5B3719" d="M450.277,272.002c-3.618,0-6.898-2.471-7.774-6.145c-0.586-2.457-1.291-4.922-2.092-7.328
		c-1.396-4.191,0.869-8.722,5.061-10.119c4.19-1.396,8.722,0.869,10.119,5.061c0.948,2.846,1.781,5.764,2.475,8.672
		c1.026,4.297-1.626,8.613-5.924,9.638C451.517,271.93,450.892,272.002,450.277,272.002z"/>
</g>
<path fill="#5B3719" d="M268.757,355.431l17.274-12.953c11.624-8.718,19.893-21.172,23.418-35.269l0,0
	c1.5-6,6.891-10.209,13.075-10.209l0,0c7.443,0,13.477,6.034,13.477,13.477V313l14.015-9.344C356.253,299.498,360,292.497,360,285
	l0,0c0-6.627,5.373-12,12-12l0,0c6.627,0,12,5.373,12,12v0c0,13.247-2.136,26.407-6.325,38.974l-4.483,12.149L268.757,355.431z"/>
<g>
	<path fill="#FFC864" d="M288,144.007c-4.418,0-8-3.582-8-8v-4.686c0-9.433,3.673-18.301,10.343-24.971
		c3.124-3.124,8.189-3.124,11.313,0c3.125,3.124,3.125,8.189,0,11.313c-3.648,3.648-5.657,8.498-5.657,13.657v4.686
		C296,140.425,292.418,144.007,288,144.007z"/>
</g>
<g>
	<path fill="#FFC864" d="M256,152.007c-4.418,0-8-3.582-8-8v-4.686c0-9.433,3.673-18.301,10.343-24.971
		c3.124-3.124,8.189-3.124,11.313,0c3.125,3.124,3.125,8.189,0,11.313c-3.648,3.648-5.657,8.498-5.657,13.657v4.686
		C264,148.425,260.418,152.007,256,152.007z"/>
</g>
<g>
	<path fill="#FFC864" d="M71.991,358.554c-3.792,0-7.16-2.708-7.862-6.571c-0.79-4.347,2.093-8.512,6.44-9.302l8-1.454
		c4.353-0.788,8.512,2.094,9.302,6.44c0.79,4.347-2.093,8.512-6.44,9.302l-8,1.454C72.947,358.511,72.465,358.554,71.991,358.554z"
		/>
</g>
<g>
	<path fill="#FFC864" d="M103.991,352.736c-3.792,0-7.159-2.707-7.862-6.57c-0.79-4.347,2.093-8.512,6.44-9.302l32-5.818
		c4.35-0.789,8.512,2.093,9.302,6.44c0.79,4.347-2.093,8.512-6.44,9.302l-32,5.818C104.947,352.693,104.465,352.736,103.991,352.736
		z"/>
</g>
<circle fill="#E94A41" cx="255.155" cy="271.999" r="24"/>
<circle fill="#E94A41" cx="396.116" cy="103.485" r="24"/>
</svg>
