<?xml version="1.0" encoding="utf-8"?>
<!-- Generator: Adobe Illustrator 24.0.0, SVG Export Plug-In . SVG Version: 6.00 Build 0)  -->
<svg version="1.1" id="icons" xmlns="http://www.w3.org/2000/svg" xmlns:xlink="http://www.w3.org/1999/xlink" x="0px" y="0px"
	 viewBox="0 0 340 340" style="enable-background:new 0 0 340 340;" xml:space="preserve">
<style type="text/css">
	.st0{fill:#2B2B2B;}
</style>
<g>
	<path class="st0" d="M301.4,199.2c-0.5,0-1.1,0-1.6,0c0-4.8-0.1-9.6-0.4-14.4c6.8,0.3,13.2-3.4,16.3-9.6c2.9-5.9,2.3-12.8-1.6-18
		c-9.5-13.4-27.4-19.3-44.2-16.5c-0.6-11.3-1.3-20.5-1.9-27.5c7.9,0.6,15.7-2.8,19.9-9.6c3.8-6,4.3-13.4,1.3-19.8
		c-7-17.2-29.1-30-55.7-23.4c-7-25.8-26.3-37.5-52.4-32.1c-5.3-16.5-18.5-22.9-38-23.1c-35.8,0.2-41.8,23.6-42.4,38.2
		C77.6,42.9,60,57.3,55.2,68.4c-3.2,6.1-2.9,13.2,0.8,19c5.4,8.2,13.3,9.2,22.3,8.1l-0.3,22.7c-26.7-9.2-48.2,6.5-54.1,26.2
		c-4.3,11.2,4.8,24.2,16.8,23.9c0,0,6.5,0,6.5,0c0,10.3,0,21.7,0.1,34.3c-20.1-3.4-35.1,8.7-39.6,32.6c-2.3,11.4,7.5,21.2,18.9,20.1
		c0.4,10.1,1.5,20.6,3.4,31.2c5,36.3,52.4,48.7,82.9,48.1c1.3,0,2.1,0,2.4,0h41.3c0.2,0,0.4,0,0.6,0h67.6c0.2,0,0.5,0,1,0
		c38.9-1.2,83.9-24.1,90.2-88.1c10.4,0.2,18.8-10.6,16.1-20.6C328,208.7,317.1,199.2,301.4,199.2z M294.3,150.1l-3.3-1.2
		C292.2,149.3,293.3,149.7,294.3,150.1z M278.2,147.1c4.6,0,8.8,0.6,12.7,1.8c0.9,0.4,10.5,5.7,12.8,17.5
		c2,10.3-12.6,11.5-17.6,11.6h-25.9c-3.5,0-6.6-1.7-8.6-4.5c-2-2.8-2.4-6.3-1.2-9.5C254.6,152.8,264,147.1,278.2,147.1z M232.6,76
		c1.5-2.6,2.2-5.6,2.2-8.6c8.7-2.4,20.7-2.1,28.9,1.1c2.2,1,11.6,6.1,13.8,21.9c2,14.7-14,16.1-18.4,16.2h-13.8
		C220.2,106.6,232.6,76,232.6,76L232.6,76z M208.8,200.2c7.3,0,13.2,1.3,18.1,3.3c12.4,9.5,21.4,31.4-8.4,31.8c0,0-33.6,0-33.6,0
		c-2.3,0-4.5-1.1-5.9-2.9c-1.4-1.9-1.8-4.3-1.2-6.5C181.3,214.2,189.5,200.2,208.8,200.2z M184.3,202.2v-59.7h0.4l23.6,13.7
		c0.1,11.9,0.3,24.3,0.5,37.2C199.1,193.4,190.8,196.4,184.3,202.2z M182.8,44.7c0.2-3.4,0.1-6.6-0.2-9.5
		c23.6-4.8,39.9,5.6,45.1,30.2c1.7,6.9-4.9,13.9-11.8,12.7c-3.3-0.5-6.6-0.8-9.7-1l0,0c-25.6-2.7-27.5-21.6-27.5-21.6h0
		C181.1,52.4,182.6,48.7,182.8,44.7z M195.9,122.6c1.2,6.6-4.6,13.2-11.3,13c0,0-40.3,0-40.3,0c-6.6,0.2-12.3-6.2-11.3-12.8
		c2.3-17,12.5-25.6,30.1-25.6C182.2,97.2,193.2,105.8,195.9,122.6z M130.6,136.2c3,3.4,7,5.5,11.5,6.1v20.3
		c-6.1-1.5-14.6-1.6-20.8-0.2v-67l12.6,7.3C127.6,110.8,122,126.9,130.6,136.2z M143.2,12.2c14.6-0.7,23.3,7.2,26.8,25.5
		c2.8,15-22.7,16.1-22.7,16.1l0,0c-6-0.2-12.2,0-18.5,0.6c-4.8-5.1-11.6-9.1-21.1-10.4C108.1,23.2,120.3,12.2,143.2,12.2z
		 M72.6,88.9c-9,0.9-15.8-9.4-11.3-17.3c7.5-15.6,28-23.5,46.5-20.6c13,5.5,16.4,15.4,15,27.2c-1.2,9.6-19,9.7-19,9.7l0,0
		C92.5,87.7,80.8,88.3,72.6,88.9z M40.7,161.4c-7.4,0.2-13-7.8-10.3-14.7c6.4-20.3,25.7-28.4,44.4-22.5c2.5,1,10.4,5.3,13.1,20.7
		c2.4,13.8-9.9,16.2-16,16.5H40.7z M82,312.9C52,286,53.9,226.7,54,181.9l23.5,14c0,22.7,2.1,52.6,9.8,74.6l0,0
		C100,309.4,82,312.9,82,312.9z M112.9,255.6c-0.8,5.9-3.2,11-9.3,8.9c-12.6-4.3-16.3-24.2-16.3-24.2c-4-27-3.2-55.9-2.2-72.2
		c5-0.4,9.6-2.9,12.7-6.9c9.9-12.4-2.9-33.3-13-39.6l0.2-10.8c3.7,2.1,22.6,13.6,29.3,17.7v36.1c-12.8,5.5-21.7,19.5-21.9,30.9
		c0,0-4.5,18.9,20.5,28.9V255.6z M108.4,203.6c-6.1,0.2-10.8-6.4-8.7-12.1c5.7-19.7,25-27.1,43.2-21.5c0,0-0.1,0-0.1,0
		c0,0,10.9,4.8,12.5,21.6c0.8,9.1-8.3,11.4-14.9,11.9H108.4z M166.6,318.9c-0.4,6.7-7.4,10.4-13.4,8.3
		c-10.1-3.3-33.4-16.3-33.4-65.4v-29.7c5.5,2.1,16.9,6.8,22.2,8.9c0.7,11.4-3.9,46.3,20.7,68.7C165.4,311.9,166.9,315.4,166.6,318.9
		z M215,313.7c-5.9,9.9-20,14.5-30.7,14l0,0c1.4-12-8.3-17.9-8.3-17.9l0,0c27.3-4.2,28.9-30.3,30.7-54.8l19.3,12.1
		C225.1,283.4,222.2,301.2,215,313.7z M232.7,269.9c0.7-10.3,0.6-20,0.3-27.6c7,0.1,13.1,0.5,17.7-5.8c8.4-10.4-4.8-31.9-19.5-38.5
		c3.3-21.1,3.8-44.4,3.6-62.6l22.5,10c-11.2,7-18.8,21-11.3,32c3.7,5.5,10.2,8,16.7,7.5C266.3,238.2,247.2,260.6,232.7,269.9z
		 M280.2,307.7c-30.4,9.4-38-7.8-38-7.8l0,0c25.9-7,37.7-26.7,43-42.2l19.2,11.9C299.5,285.3,291.4,298,280.2,307.7z M318.1,235.4
		c-2.9,3.3-8.4,4.1-11.6,4.2h-19.1c-6.2,0.2-11.1-6.1-9.6-12.1c3.2-14.2,11.1-21.4,23.7-21.4c5.7,0,10.4,1.5,14.2,4.4
		C326.3,221.4,322.9,229.9,318.1,235.4z"/>
</g>
</svg>
