<?xml version="1.0" encoding="utf-8"?>
<!-- Generator: Adobe Illustrator 24.0.0, SVG Export Plug-In . SVG Version: 6.00 Build 0)  -->
<svg version="1.1" id="icons" xmlns="http://www.w3.org/2000/svg" xmlns:xlink="http://www.w3.org/1999/xlink" x="0px" y="0px"
	 viewBox="0 0 340 340" style="enable-background:new 0 0 340 340;" xml:space="preserve">
<style type="text/css">
	.st0{fill:#E7AB94;}
	.st1{fill:#BC735F;}
	.st2{fill:#473F43;}
	.st3{fill:#9B9799;}
	.st4{fill:#AF705F;}
	.st5{fill:#7F473E;}
	.st6{fill:#FFFFFF;}
	.st7{fill:#2B2B2B;}
	.st8{fill:#E8F0F9;}
	.st9{fill:#A7B6C4;}
	.st10{fill:#896B66;}
	.st11{fill:#604F4D;}
	.st12{fill:#F2D6C0;}
	.st13{fill:#D39F88;}
	.st14{fill:#A86862;}
	.st15{fill:#723F3B;}
	.st16{fill:#F4CABA;}
	.st17{fill:#AECC76;}
	.st18{fill:#84994A;}
	.st19{fill:#B73D49;}
	.st20{fill:#F7616C;}
	.st21{fill:#FFE9E9;}
	.st22{fill:#FFD066;}
	.st23{fill:#ED9D3E;}
	.st24{fill:#FFF7E1;}
	.st25{fill:#993636;}
	.st26{fill:#DB6767;}
	.st27{fill:#FCDEDE;}
	.st28{fill:#3E6A51;}
	.st29{fill:#719B56;}
	.st30{fill:#A9DB89;}
	.st31{fill:#80B297;}
	.st32{fill:#FFEAC5;}
	.st33{fill:#EBB699;}
	.st34{fill:#E54871;}
	.st35{fill:#B73463;}
	.st36{fill:#5B723D;}
	.st37{fill:#EAB198;}
	.st38{fill:#FFEEC8;}
	.st39{fill:#224730;}
	.st40{fill:#996A9E;}
	.st41{fill:#663F70;}
	.st42{fill:#EDD3EF;}
	.st43{fill:#FFE5A4;}
	.st44{fill:#EDB87F;}
	.st45{fill:#FFFAEE;}
	.st46{fill:#EAFFDC;}
	.st47{fill:#FC997E;}
	.st48{fill:#E0625C;}
	.st49{fill:#F6FCDE;}
	.st50{fill:#C8D39C;}
	.st51{fill:#D0AED3;}
	.st52{fill:#3C5647;}
	.st53{fill:#4E6D5D;}
	.st54{fill:#EAEFDA;}
	.st55{fill:#FFDFD7;}
	.st56{fill:#CAEFDA;}
	.st57{fill:#F980A0;}
	.st58{fill:#B2446B;}
	.st59{fill:#FFEEF5;}
	.st60{fill:#B77C6A;}
	.st61{fill:#473030;}
	.st62{fill:#6D4B4B;}
	.st63{fill:#8E3E3E;}
	.st64{fill:#CB6B67;}
	.st65{fill:#F4F7D0;}
	.st66{fill:#D3D398;}
	.st67{fill:#FFFFF3;}
	.st68{fill:#E89E85;}
	.st69{fill:#AA5B4F;}
	.st70{fill:#B76553;}
	.st71{fill:#F0F4C3;}
	.st72{fill:#D3D385;}
	.st73{fill:#7A504B;}
	.st74{fill:#EFD1CB;}
	.st75{fill:#CDD68A;}
	.st76{fill:#8B9958;}
	.st77{fill:#BC8875;}
	.st78{fill:#7F4C45;}
	.st79{fill:#333333;}
	.st80{fill:#E6F4CE;}
	.st81{fill:#F5FFDE;}
	.st82{fill:#C9D6A3;}
	.st83{fill:#EDA483;}
	.st84{fill:#FCDA9F;}
	.st85{fill:#FFE18D;}
	.st86{fill:#915351;}
	.st87{fill:#ECF7D5;}
	.st88{fill:#FF9773;}
	.st89{fill:#DE5D47;}
	.st90{fill:#B24242;}
	.st91{fill:#FFDED7;}
	.st92{fill:#E9EFF4;}
	.st93{fill:#E8F4C9;}
	.st94{fill:#FFA750;}
	.st95{fill:#F47B5B;}
	.st96{fill:#FFE5C5;}
	.st97{fill:none;stroke:#000000;stroke-width:7;stroke-linecap:round;stroke-linejoin:round;stroke-miterlimit:10;}
	.st98{fill:#7B7091;}
	.st99{fill:#4B4763;}
	.st100{fill:#FFEDD2;}
	.st101{fill:#D8CEEF;}
	.st102{fill:#FFE3E8;}
	.st103{fill:#F1FCD4;}
	.st104{fill:#D3D35F;}
	.st105{fill:#657230;}
	.st106{fill:#6D5046;}
	.st107{fill:#C4948D;}
	.st108{fill:#7C3E35;}
	.st109{fill:#966F64;}
	.st110{fill:#FCD9CA;}
	.st111{fill:#FFF2EE;}
	.st112{fill:#FFEECC;}
	.st113{fill:#E5C49C;}
	.st114{fill:#FFDE9C;}
	.st115{fill:#F2F2F2;}
	.st116{fill:#E0DCF9;}
	.st117{fill:#8E88BF;}
	.st118{fill:#B2ABD8;}
	.st119{fill:#E2ED9D;}
	.st120{fill:#353535;}
	.st121{fill:#EFDDBB;}
	.st122{fill:#464156;}
	.st123{fill:#B5AFD8;}
	.st124{fill:#F4EDEF;}
	.st125{fill:#D6C8CD;}
	.st126{fill:#9D8044;}
	.st127{fill:#D6BF6C;}
	.st128{fill:#9E5C47;}
	.st129{fill:#F7C292;}
	.st130{fill:#C96C5D;}
	.st131{fill:#843734;}
	.st132{fill:#BF765A;}
	.st133{fill:#FFDB94;}
	.st134{fill:#EAA75E;}
	.st135{fill:#C17E61;}
	.st136{fill:#F4C8A6;}
	.st137{fill:#C9A993;}
	.st138{fill:#846855;}
	.st139{fill:#E2C0A1;}
	.st140{fill:#FFF4E6;}
	.st141{fill:#8E7866;}
	.st142{fill:#F7C9BC;}
	.st143{fill:#D37C71;}
	.st144{fill:#F49A7A;}
	.st145{fill:#C95647;}
	.st146{fill:#BF977C;}
	.st147{fill:#C68E7C;}
	.st148{fill:#965A4D;}
	.st149{fill:#F49A4A;}
	.st150{fill:#D66336;}
	.st151{fill:#A06656;}
	.st152{fill:#467057;}
	.st153{fill:#CE9474;}
	.st154{fill:#B26E5F;}
	.st155{fill:#6D3F3F;}
	.st156{fill:#995042;}
	.st157{fill:#66342D;}
	.st158{fill:#CE7C63;}
	.st159{fill:#E8CAA6;}
	.st160{fill:#CC9972;}
	.st161{fill:#C6906B;}
	.st162{fill:#E5EFBD;}
	.st163{fill:#FFED80;}
	.st164{fill:#EFC660;}
	.st165{fill:#E8C182;}
	.st166{fill:#B77D4E;}
	.st167{fill:#EFC88F;}
	.st168{fill:#CC9364;}
	.st169{fill:#B27952;}
	.st170{fill:#F9CADC;}
	.st171{fill:#F3F7E2;}
	.st172{fill:#C6CCAA;}
	.st173{fill:#EFF4B0;}
	.st174{fill:#EAFCDE;}
	.st175{fill:#BE9553;}
	.st176{fill:#8E6335;}
	.st177{fill:#FFBC6C;}
	.st178{fill:#EA8B57;}
	.st179{fill:#EFDB8F;}
	.st180{fill:#FFEDD9;}
	.st181{fill:#FFF5E6;}
	.st182{fill:#4F4444;}
	.st183{fill:#756A6A;}
	.st184{fill:#D6C5C5;}
	.st185{fill:#CE5757;}
	.st186{fill:#4C4C4C;}
	.st187{fill:#AFAFAF;}
</style>
<g>
	<path class="st146" d="M115.8,329.2c0,0-72.6,2.7-80.8-44.7c-2.4-13.8-3.7-27.9-3.4-41.6h33.1L115.8,329.2z"/>
	<path class="st146" d="M26.1,250.9h47.6c0,0,1.8-45.9-31.1-45.9c-19.9,0-27.1,16.8-29.7,30C11.4,243.3,17.7,250.9,26.1,250.9z"/>
	<polygon class="st146" points="229,103.8 205.7,100.1 205.7,246.7 234.6,249.3 	"/>
	<path class="st140" d="M229.6,140.2c-0.5,36.9-4.7,90.6-24,106.5v42.4l55.9-28.3c6.1-52.2,6.6-69.8,3.5-124.8
		C256.6,128.1,236.3,131.5,229.6,140.2z"/>
	<path class="st139" d="M265.1,136.1c-0.8-13-1.7-25.9-2.9-32.3H229c0,0,0.9,15.5,0.6,36.5L265.1,136.1z"/>
	<path class="st140" d="M286.2,91.1c-4.1-18-24.3-31-48.6-26.8c0,0-22.8,16.1,5.4,30.2C288.3,117,286.2,91.1,286.2,91.1z"/>
	<path class="st139" d="M269.3,110.7c10.8,0,18.4-9.7,16.9-19.6c-0.2,6.4-14.4,7-14.4,7h-12.5c-10.5,0-19.1-8.6-19.1-19.1
		c0-6.1-1.5-11.5-2.6-14.7c-15.5,2.5-24.5,11.6-29.7,21c-6.3,11.4,1.9,25.3,14.9,25.3H269.3z"/>
	<path class="st140" d="M215,309.3l-51.8,0V112.7c9.1-12.6,37.2-19.4,48-10.6C210.6,163.3,212.2,239.6,215,309.3z"/>
	<path class="st139" d="M163.2,112.7l48-10.6c0.2-20.8,0.6-39.8,1.3-56.2h-49.3V112.7z"/>
	<path class="st140" d="M225.9,52.8c-5.3-12.2-19.4-22.6-38.7-20.3c-13.1,5.3-12.2,26.7,0,37C211.3,83.4,234.6,73.2,225.9,52.8z"/>
	<path class="st146" d="M163.2,309.3H215c-1.1-29-2.1-59.1-2.8-88.9h-49V309.3z"/>
	<rect x="115.8" y="45.9" class="st139" width="47.4" height="169.8"/>
	<path class="st139" d="M230.3,65.9c-0.9-4.3-2.3-8.8-4.4-13.1c4.6,18.7-19.4,16.8-19.4,16.8H206c-9.2,0-16.3-7.9-15.6-17
		c0.7-9.4-2-17.2-3.1-20c-9.8,1.1-32.7,6.8-36.1,34.5c-1.1,9.1,6.7,16.8,15.8,15.5c11.3-1.6,28.1-2.8,47.9-0.1
		C224.3,83.8,232.3,75.3,230.3,65.9z"/>
	<polygon class="st146" points="83,86.9 80,283.7 134.1,312.7 118.4,198.6 118.4,85 	"/>
	<rect x="145.7" y="128.1" class="st146" width="35" height="184.6"/>
	<path class="st146" d="M263.8,173.4h29.8c0,0,18.1,133.8-78.6,133.8v-28.5C215,278.8,275.6,272.7,263.8,173.4z"/>
	<path class="st146" d="M186.4,329.2c29.2-1.7,116.6,16.4,125.3-93.3h-26.9c0,0-2.9,64.6-68.9,61.5L186.4,329.2z"/>
	<path class="st140" d="M176.9,304.2c20-4.3,23-20.3,25.1-40.6c3.6-8.7,21.1-13.3,27-6.7c-0.3,18.7-2.8,41.5-11.7,56.7
		c-5.7,9.8-19.6,15.6-31,15.6l-12,0C169.4,321.5,171.3,308.2,176.9,304.2z"/>
	<path class="st139" d="M163.4,304.9l-6.1,24.3h17.1c11.4-7.2,6.8-20.7,2.5-25C169.6,305.8,163.4,304.9,163.4,304.9z"/>
	<path class="st139" d="M83.7,156.6c0,0-15.3,148.8,46.9,145.5l26.7,27h-41.5c0,0-62,2.2-63.4-103.2c-0.4-30.5-0.5-52.8-0.3-69.1
		L83.7,156.6z"/>
	<path class="st140" d="M145.7,226.7c1.2,17.3-6,55.3,19.2,78.7c3.6,2.9,5.5,7.4,5.1,12c-0.4,8.3-9.5,14-17.7,11.1
		c-11-3.6-35.3-17.4-35.3-67.8l0-27.3C121.8,223.5,141.4,218,145.7,226.7z"/>
	<path class="st146" d="M259.1,181.3h39.6c11.2,0,17.7-12.8,11-21.8c-6.1-8.2-16.2-15.5-32.8-15.5c-18.9,0-27.1,9.5-30.7,18.9
		C242.8,171.8,249.5,181.3,259.1,181.3z"/>
	<path class="st140" d="M179.3,41.2c-0.4-14.4-7.3-30.4-35.8-30.4c-22.1,0-32,9.6-36,20.7c-2.1,13.6,8.1,20.7,28.5,22.7
		C164.2,58.4,177.3,53.3,179.3,41.2z"/>
	<path class="st139" d="M179.3,46c0.1-1.6,0.1-3.2,0.1-4.8c-0.7,8-13,6.5-13,6.5s-24.4-1.8-41.4-1.8s-17.4-14.5-17.4-14.5l0,0
		c-1.6,4.3-2.3,8.8-2.5,13.1c-0.4,9.5,7.9,17,17.3,15.6c10.2-1.5,24.5-2.5,39.5-0.1C170.6,61.4,178.7,54.9,179.3,46z"/>
	<polygon class="st139" points="145.7,226.7 145.7,198.6 117,198.6 117,233.3 	"/>
	<path class="st140" d="M164.9,184.9c-5.3-10.1-15.1-20-33.2-20c-13.7,0-22.3,5.6-27.8,12.8c-2.8,8.3-1.3,16,8.4,22.6
		C151,207.1,168.7,202.1,164.9,184.9z"/>
	<path class="st146" d="M119.7,92.9c-16.1-1.2-33-0.6-45.8,0.4c-11.8,0.9-20-11.6-14.4-22.1c5.6-10.5,16.5-20.9,37.6-22.5
		c24.5-1.9,34.3,12,38.2,25.2C138.4,83.8,130.2,93.7,119.7,92.9z"/>
	<path class="st140" d="M96.9,142c-4.3-11.2-13.3-22.4-32.5-22.4c-11.4,0-19.5,3.9-25.2,9.5c-6.2,15-6.9,27.9,20.7,29.9
		C90.5,162.7,101.8,156.5,96.9,142z"/>
	<path class="st139" d="M202.8,224.7c0,0,1.4,18.5-0.8,39l27-6.7c0.3-18-1.5-32.2-1.5-32.2H202.8z"/>
	<path class="st140" d="M242.8,212.4c-8.6-15-40.4-22.9-56.5-8.1c-6.7,9.2-6.8,18.5,5.1,28.2l50.9-4.1
		C246,223.6,246.5,218.3,242.8,212.4z"/>
	<path class="st146" d="M285.9,242.1h28.1c8.5,0,14.8-7.9,12.8-16.2c-2.6-11-9.5-23.7-27-23.7c-17.6,0-24.3,12.8-26.7,23.8
		C271.3,234.3,277.5,242.1,285.9,242.1z"/>
	<path class="st139" d="M98.5,147c-0.4-1.6-1-3.3-1.6-5h0c2.5,11.3-10,11.1-10,11.1H55.8c-16.7-1.8-17.5-16.2-16.6-24.1
		c-5,4.9-8.2,10.9-10.3,16.7c-3.3,9.3,3.5,19.1,13.4,19.1h42.5C94.1,164.8,100.9,156,98.5,147z"/>
	<path class="st139" d="M167.1,189.6c-0.6-1.6-1.3-3.1-2.2-4.7c2.9,10.3-8.3,9.9-8.3,9.9H115c-15-1.4-11.1-17.1-11.1-17.2
		c-3,3.9-5.1,8.3-6.5,12.5c-2.7,8.1,3.3,16.4,11.8,16.4h46.4C164.2,206.5,170.4,197.7,167.1,189.6z"/>
	<path class="st146" d="M198,118.1c-3.1-11.5-11.9-23.4-34.7-23.4c-16.2,0-24.8,6.9-29.2,15.3c0,0,0,0,0,0
		c-2.2,4.1-3.3,8.6-3.9,12.8c-1.2,8.8,5.7,16.5,14.5,16.5h39.8C204.2,139.4,198,118.1,198,118.1z"/>
	<path class="st139" d="M248.5,224.1c-1.2-3.8-3-7.9-5.7-11.8c3.9,16.1-13.8,15.2-13.8,15.2h-24c-27.9,0-18.8-22.9-18.7-23.3
		c-6.4,5.6-9.9,13.4-11.8,20c-2,6.8,3.1,13.7,10.2,13.7h53.6C245.5,238,250.6,231,248.5,224.1z"/>
	<path class="st7" d="M299.8,198.9c-0.5,0-1.1,0-1.6,0c0-4.8-0.1-9.5-0.4-14.2c6.8,0.3,13-3.4,16.1-9.5c2.9-5.8,2.3-12.6-1.6-17.8
		c-9.4-13.2-27-19-43.6-16.3c-0.6-11.2-1.2-20.3-1.9-27.1c7.8,0.6,15.5-2.7,19.7-9.5c3.8-5.9,4.2-13.2,1.2-19.6
		c-6.8-16.9-28.9-29.7-55-23.1c-6.9-25.5-26-37-51.7-31.8c-5.3-16.3-18.3-22.6-37.6-22.8c-35.4,0.2-41.3,23.3-41.9,37.7
		c-27.5-1-56.5,22.9-44.2,43.3c5.3,8,13.2,9.1,22.1,8l-0.3,22.5c-43.6-16.6-75.9,44.7-36.9,49.5c0,0,6.4,0,6.4,0
		c0,10.1,0,21.5,0.1,33.9c-19.9-3.4-34.7,8.6-39.1,32.2c-2.2,11.3,7.4,21,18.7,19.8c0.4,10,1.5,20.3,3.3,30.8
		c4.8,35.7,52,48.2,81.9,47.5c1.3,0,2.1,0,2.4,0h40.8c0.8,0.1,66.6,0,67.4,0c0.2,0,0.5,0,1,0c38.5-1.2,82.9-23.8,89.2-87.1
		c10.3,0.2,18.6-10.4,15.9-20.4C326.1,208.2,315.3,198.9,299.8,198.9z M307,161.5c5.2,6.4-0.1,16.7-8.3,16.4c0,0-39.6,0-39.6,0
		c-6.9,0.2-12.3-7.4-9.7-13.8C256.8,141.2,295,143.1,307,161.5z M280.1,244.5c-3.2,15.4-14.1,45.6-51.8,49.3
		c1.3-5.5,2.2-11.2,2.8-16.9c16-8.3,41.2-31.2,37-92.2h22.9c0.3,5,0.4,10.1,0.4,15.2C274.9,202.6,257.9,235.1,280.1,244.5z
		 M184.7,234.6c-4.7,0.1-8.4-4.9-7-9.3c3.4-11.6,11.5-25.4,30.6-25.4c24,0,33.3,13.8,36.9,25.3c1.5,4.5-2.2,9.6-6.9,9.4
		C238.3,234.6,184.7,234.6,184.7,234.6z M199.8,241.3c-0.1,11.3-0.9,26.7-4.2,40.7c-2,8.5-6.5,13.4-11.5,16.2v-56.9
		c0.2,0,0.4,0,0.6,0H199.8z M85.9,122.2l0.4-26.3c4.2-0.2,8.7-0.3,13.4-0.3v9c0,1.9,1.5,3.4,3.4,3.4s3.4-1.5,3.4-3.4v-9
		c2.8,0.1,5.7,0.2,8.5,0.3v68.7c-13.7,5.4-27.7,27-18.7,38.7c4.3,6,10.3,7,17.3,6.6c0.5,21.7-2.6,69.1,5.5,87.4
		c-35.3-10-35.4-101.8-32.9-129.1C113,163.6,101.2,131.9,85.9,122.2z M109.2,203.1c-6,0.2-10.7-6.3-8.6-11.9
		c5.2-15.2,15.6-23,31.1-23c15.4,0,26.2,7.6,32.2,22.6c2.5,5.7-2.3,12.5-8.5,12.3C155.5,203.1,109.2,203.1,109.2,203.1z M138.6,72.8
		c-1-3.5-2.5-7.1-4.6-10.6c9-0.6,17.6-0.3,25.7,0.9v28.3c-18.8,1.2-30.5,12.1-33.1,31c-1.5,9.6,6,19.2,15.6,20.2v20
		c-6-1.5-14.5-1.6-20.6-0.2V96.3C133.2,96.1,142.3,83.8,138.6,72.8z M133.5,123.4c2.3-16.8,12.3-25.3,29.8-25.3
		c18.8,0,29.7,8.4,32.3,25.1c1.2,6.5-4.5,13-11.1,12.8c0,0-39.8,0-39.8,0C138.1,136.2,132.5,129.9,133.5,123.4z M208.3,193.1
		c-9.6,0-17.8,3-24.2,8.7v-59c10.8,0.5,20.2-10,18.2-20.7c-1.8-11.1-8.8-29.3-35.7-30.7V86c10.1-1.4,23.9-2.6,41.4-0.9
		C207.5,116,207.6,152.3,208.3,193.1z M214.5,112.4c3.5,1.7,7.9,1.8,11.8,1.7c0.9,16.2,2,50.9-2.5,81.1c-2.7-0.8-5.6-1.4-8.8-1.7
		C214.6,163.9,214.4,136.8,214.5,112.4z M233.1,114.1h9l0.6,14.2c0.1,1.8,1.6,3.2,3.4,3.2c1.9,0,3.5-1.6,3.4-3.5l-0.6-13.9h11.2
		c0.7,7.1,1.4,16.8,2,28.8c-14.9,5.3-25.4,22.2-17.1,34.4c3.6,5.4,10.1,7.9,16.5,7.4c3.7,52.6-15.2,74.8-29.5,83.9
		c0.7-10.1,0.6-19.7,0.3-27.3c32,2.7,21-33.1-1.8-43.8C235.1,166.7,234,130.9,233.1,114.1z M234,68.6c18.6-5,40.4,1.4,47.7,19.3
		c4.4,8.6-2.7,19.7-12.4,19.4c0,0-46.6,0-46.6,0c-3,0-5.9-1-8.2-2.7c0.1-6.4,0.1-12.6,0.2-18.6C224.7,87.3,234.4,78.6,234,68.6z
		 M182.4,36.8c23.3-4.7,39.4,5.5,44.6,29.8c0.7,3.4-0.2,6.7-2.6,9.3c-2.4,2.5-5.7,3.7-9.1,3.3c-20.4-2.8-37.7-1.5-48.7,0V63.4
		C180.5,61.1,184.2,49.3,182.4,36.8z M143.5,14.1c22,0,33.6,10,32.4,31.7c-0.2,3.3-1.8,6.3-4.4,8.4c-2.6,2.1-5.8,2.9-9.1,2.4
		c-10.4-1.7-21.5-1.9-33.1-0.8c-4.8-5.1-11.5-9-20.9-10.3C108.8,24.9,120.8,14.1,143.5,14.1z M73.7,89.9c-8.9,1-15.6-9.4-11.1-17.1
		c6.8-13.6,21.9-21,39-20.9c15.7,0,26,7.7,30.5,22.9c2.5,7.5-4.4,15.6-12.1,14.8h0C105.5,88.3,86.2,88.9,73.7,89.9z M42.3,161.5
		c-7.3,0.2-12.9-7.7-10.2-14.5c5.7-15.9,16.6-24,32.3-24c16.1,0,26.4,8.4,30.8,24.9c2,6.6-3.6,13.8-10.5,13.6
		C84.7,161.5,42.3,161.5,42.3,161.5z M26.1,247.5c-6,0.2-11.1-5.9-9.8-11.8c3.8-20.7,15.8-30.1,32.5-26.6
		c0.1,12.2,0.1,26.4,1.4,38.4H26.1z M38.3,283.9c-1.8-10.1-2.8-20.1-3.2-29.7h16c5,32.2,14.7,53.9,36,68.9
		C66.9,319,42.7,308.9,38.3,283.9z M115.7,325.8c-39.2-1.3-60.7-49.1-59.9-99.9c-0.3-22.1-0.4-41.5-0.4-57.7h24
		c-2.8,32.6-1.9,132.1,43,136.9c5,10.1,11.4,16.6,17.3,20.7C139.5,325.8,115.8,325.8,115.7,325.8z M153.4,325.3
		c-39-13.4-32.9-67.9-33-115.3h8.6v12.3c0,1.9,1.5,3.4,3.4,3.4s3.4-1.5,3.4-3.4v-12.3h6.6c1.9,25.3-8.2,72.2,20.4,98.1
		C171.5,315.4,164.4,328.9,153.4,325.3z M165.7,301.6c-23.8-24.1-14.8-68-16.6-91.6c7.9,0.2,14.5,0.2,19.5-7
		c8.7-11.8-6.2-32.5-19.5-38v-22.1h28.2v67c-5.4,8.9-11.4,22.1,0,29.5v61.6C171.7,302.2,166.8,301.7,165.7,301.6z M170.4,325.8
		c3.5-4.7,4-12,1.3-17.3c11.2-0.6,26.1-6.2,30.5-25c3.4-14.5,4.3-30.6,4.4-42.2h18.8c0.8,19,0.3,51.3-11,70.6
		c-5.3,9-18.4,13.9-28.1,13.9H170.4z M263.3,316.4c-28.4,12.8-38.1,8.7-53.6,9.5c9.4-5.5,13.6-14.9,16.8-25.1
		c44.3-3,56.8-37.9,60.3-55.1h20.6C303.7,279.6,288.8,303.4,263.3,316.4z M321.8,235c-1.9,2.4-4.7,3.7-7.7,3.7h-28.1
		c-6.1,0.2-11-6-9.5-11.9c3.1-14.1,11-21.2,23.4-21.2c12.4,0,20.4,7.1,23.7,21.1C324.3,229.6,323.6,232.7,321.8,235z"/>
</g>
</svg>
